<svg width="24" height="24" viewBox="0 0 24 24" fill="none" xmlns="http://www.w3.org/2000/svg">
<g clip-path="url(#clip0_8_2)">
<circle cx="12" cy="12" r="12" fill="#C91F1F"/>
<path d="M3.67741 11.26L3.41941 12.796H3.92941C4.24941 12.796 4.49341 12.71 4.66141 12.538C4.82941 12.366 4.91341 12.138 4.91341 11.854C4.91341 11.686 4.85141 11.546 4.72741 11.434C4.60741 11.318 4.40341 11.26 4.11541 11.26H3.67741ZM3.93541 9.694L3.70141 11.086H3.94741C4.25941 11.086 4.49941 11.008 4.66741 10.852C4.83941 10.696 4.92541 10.48 4.92541 10.204C4.92541 9.864 4.65341 9.694 4.10941 9.694H3.93541ZM2.45341 13L2.47741 12.874C2.69741 12.874 2.82941 12.834 2.87341 12.754L3.37741 9.736C3.35341 9.656 3.23341 9.616 3.01741 9.616L3.04141 9.49H4.14541C4.60941 9.49 4.95541 9.562 5.18341 9.706C5.41141 9.846 5.52541 10.02 5.52541 10.228C5.52541 10.448 5.45541 10.638 5.31541 10.798C5.17541 10.954 4.98541 11.07 4.74541 11.146C5.00541 11.21 5.19741 11.308 5.32141 11.44C5.44941 11.572 5.51341 11.718 5.51341 11.878C5.51341 12.21 5.36541 12.48 5.06941 12.688C4.77741 12.896 4.38541 13 3.89341 13H2.45341ZM7.92325 10.846C7.86725 10.846 7.82325 10.828 7.79125 10.792C7.75925 10.756 7.73725 10.718 7.72525 10.678C7.71325 10.634 7.68925 10.594 7.65325 10.558C7.62125 10.522 7.57725 10.504 7.52125 10.504C7.39325 10.504 7.17125 10.772 6.85525 11.308L6.57325 13H6.03325L6.41125 10.726C6.37525 10.722 6.32925 10.718 6.27325 10.714C6.21725 10.71 6.17125 10.706 6.13525 10.702C6.09925 10.698 6.06725 10.696 6.03925 10.696L6.06325 10.558C6.13925 10.558 6.29525 10.516 6.53125 10.432C6.76725 10.344 6.93125 10.3 7.02325 10.3L6.92725 10.888C7.20325 10.496 7.43325 10.3 7.61725 10.3C7.78525 10.3 7.92325 10.332 8.03125 10.396C8.14325 10.456 8.19925 10.526 8.19925 10.606C8.19925 10.682 8.17125 10.742 8.11525 10.786C8.05925 10.826 7.99525 10.846 7.92325 10.846ZM10.8264 11.104C10.8264 11.228 10.7744 11.33 10.6704 11.41C10.5704 11.486 10.3504 11.548 10.0104 11.596L8.85241 11.752C8.85241 12.052 8.92041 12.308 9.05641 12.52C9.19641 12.728 9.37241 12.832 9.58441 12.832C9.93641 12.832 10.2384 12.7 10.4904 12.436L10.6224 12.508C10.4744 12.696 10.3004 12.836 10.1004 12.928C9.90041 13.016 9.64641 13.06 9.33841 13.06C9.04641 13.06 8.79241 12.974 8.57641 12.802C8.36441 12.63 8.25841 12.346 8.25841 11.95C8.25841 11.474 8.39041 11.08 8.65441 10.768C8.91841 10.456 9.28041 10.3 9.74041 10.3C10.1124 10.3 10.3864 10.384 10.5624 10.552C10.7384 10.716 10.8264 10.9 10.8264 11.104ZM8.86441 11.566L9.75841 11.446C10.1104 11.402 10.2864 11.26 10.2864 11.02C10.2864 10.884 10.2384 10.76 10.1424 10.648C10.0504 10.536 9.89841 10.48 9.68641 10.48C9.52241 10.48 9.35641 10.582 9.18841 10.786C9.02441 10.99 8.91641 11.25 8.86441 11.566ZM13.1198 11.062C13.1198 10.97 13.1478 10.9 13.2038 10.852C13.2598 10.804 13.3158 10.78 13.3718 10.78C13.3558 10.58 13.1678 10.48 12.8078 10.48C12.5278 10.48 12.2858 10.604 12.0818 10.852C11.8818 11.096 11.7818 11.408 11.7818 11.788C11.7818 12.076 11.8518 12.322 11.9918 12.526C12.1358 12.73 12.3118 12.832 12.5198 12.832C12.8718 12.832 13.1738 12.7 13.4258 12.436L13.5578 12.508C13.4098 12.696 13.2358 12.836 13.0358 12.928C12.8358 13.016 12.5818 13.06 12.2738 13.06C11.9818 13.06 11.7278 12.974 11.5118 12.802C11.2998 12.63 11.1938 12.346 11.1938 11.95C11.1938 11.474 11.3378 11.08 11.6258 10.768C11.9138 10.456 12.2978 10.3 12.7778 10.3C13.3738 10.3 13.6718 10.476 13.6718 10.828C13.6718 10.948 13.6418 11.046 13.5818 11.122C13.5258 11.198 13.4498 11.236 13.3538 11.236C13.1978 11.236 13.1198 11.178 13.1198 11.062ZM16.447 12.364C16.439 12.428 16.435 12.472 16.435 12.496C16.435 12.612 16.461 12.702 16.513 12.766C16.569 12.83 16.645 12.862 16.741 12.862L16.717 13C16.437 13 16.227 12.964 16.087 12.892C15.951 12.82 15.883 12.704 15.883 12.544C15.883 12.52 15.887 12.48 15.895 12.424L16.117 11.086C16.129 11.026 16.135 10.97 16.135 10.918C16.135 10.642 15.979 10.504 15.667 10.504C15.395 10.504 15.129 10.74 14.869 11.212L14.569 13H14.029L14.593 9.646C14.345 9.626 14.219 9.616 14.215 9.616L14.239 9.478C14.315 9.478 14.471 9.436 14.707 9.352C14.943 9.264 15.107 9.22 15.199 9.22L14.941 10.78C15.181 10.46 15.445 10.3 15.733 10.3C16.065 10.3 16.305 10.346 16.453 10.438C16.601 10.53 16.675 10.684 16.675 10.9C16.675 10.94 16.667 11.016 16.651 11.128L16.447 12.364ZM19.485 8.938H20.121L19.035 9.91H18.879L19.485 8.938ZM17.817 11.944C17.817 12.26 17.881 12.496 18.009 12.652C18.141 12.804 18.323 12.88 18.555 12.88C18.835 12.88 19.061 12.73 19.233 12.43C19.409 12.126 19.497 11.77 19.497 11.362C19.497 10.778 19.243 10.486 18.735 10.486C18.463 10.486 18.241 10.634 18.069 10.93C17.901 11.226 17.817 11.564 17.817 11.944ZM18.447 13.06C18.055 13.06 17.755 12.96 17.547 12.76C17.339 12.56 17.235 12.288 17.235 11.944C17.235 11.464 17.377 11.07 17.661 10.762C17.945 10.454 18.347 10.3 18.867 10.3C19.271 10.3 19.573 10.394 19.773 10.582C19.977 10.77 20.079 11.032 20.079 11.368C20.079 11.856 19.937 12.26 19.653 12.58C19.369 12.9 18.967 13.06 18.447 13.06Z" fill="#10871E"/>
</g>
<defs>
<clipPath id="clip0_8_2">
<rect width="24" height="24" fill="white"/>
</clipPath>
</defs>
</svg>
